<?xml version="1.0" standalone="no"?>
<!DOCTYPE svg PUBLIC "-//W3C//DTD SVG 20010904//EN"
 "http://www.w3.org/TR/2001/REC-SVG-20010904/DTD/svg10.dtd">
<svg version="1.0" xmlns="http://www.w3.org/2000/svg"
 width="256.000000pt" height="256.000000pt" viewBox="0 0 256.000000 256.000000"
 preserveAspectRatio="xMidYMid meet">

<g transform="translate(0.000000,256.000000) scale(0.100000,-0.100000)"
fill="#000000" stroke="none">
<path d="M1140 2554 c-201 -26 -408 -102 -565 -207 -83 -56 -108 -77 -203
-170 -172 -170 -294 -396 -348 -647 -26 -119 -26 -381 0 -500 56 -259 167
-463 355 -651 188 -188 392 -299 651 -355 119 -26 381 -26 500 0 259 56 459
164 646 350 193 193 304 394 360 656 26 119 26 381 0 500 -53 247 -163 454
-335 634 -181 189 -394 308 -651 367 -83 19 -331 33 -410 23z m603 -571 c119
-45 204 -133 243 -250 17 -53 19 -92 19 -453 0 -361 -2 -400 -19 -453 -39
-120 -133 -214 -253 -253 -53 -17 -92 -19 -453 -19 -361 0 -400 2 -453 19
-117 39 -205 124 -250 243 -21 55 -22 76 -25 428 -2 253 0 389 8 430 33 167
140 280 305 321 36 9 155 12 435 11 369 -2 387 -3 443 -24z"/>
<path d="M895 1866 c-119 -29 -178 -91 -204 -214 -15 -71 -15 -673 0 -744 27
-126 91 -190 217 -217 33 -7 174 -11 372 -11 198 0 339 4 372 11 126 27 190
91 217 217 15 71 15 673 0 744 -27 126 -91 190 -217 217 -75 16 -690 13 -757
-3z m836 -135 c48 -48 36 -111 -26 -137 -36 -15 -58 -11 -89 15 -30 26 -38 58
-22 95 26 63 89 75 137 27z m-379 -82 c155 -33 267 -147 298 -307 49 -245
-187 -481 -432 -432 -164 32 -277 145 -308 308 -29 148 49 315 182 387 91 50
170 63 260 44z"/>
<path d="M1172 1499 c-50 -25 -107 -88 -123 -136 -6 -19 -9 -66 -7 -103 4 -81
35 -135 107 -185 40 -28 49 -30 131 -30 82 0 91 2 131 30 24 17 57 50 74 74
28 40 30 49 30 131 0 82 -2 91 -30 131 -17 24 -50 57 -74 74 -37 26 -53 30
-119 33 -63 2 -85 -1 -120 -19z"/>
</g>
</svg>
