<?xml version="1.0" standalone="no"?>
<!DOCTYPE svg PUBLIC "-//W3C//DTD SVG 20010904//EN"
 "http://www.w3.org/TR/2001/REC-SVG-20010904/DTD/svg10.dtd">
<svg version="1.0" xmlns="http://www.w3.org/2000/svg"
 width="256.000000pt" height="256.000000pt" viewBox="0 0 256.000000 256.000000"
 preserveAspectRatio="xMidYMid meet">

<g transform="translate(0.000000,256.000000) scale(0.100000,-0.100000)"
fill="#000000" stroke="none">
<path d="M1140 2554 c-84 -11 -201 -39 -280 -66 -429 -152 -739 -506 -836
-958 -26 -119 -26 -381 0 -500 73 -338 268 -626 551 -817 126 -85 293 -154
455 -189 119 -26 381 -26 500 0 514 111 895 492 1006 1006 26 119 26 381 0
500 -111 513 -495 897 -1006 1006 -73 15 -320 27 -390 18z m748 -780 c16 -11
22 -25 22 -50 0 -47 -206 -1020 -224 -1061 -17 -36 -43 -48 -77 -34 -13 5 -95
61 -182 125 -87 64 -161 116 -164 116 -4 0 -46 -38 -94 -85 -47 -47 -95 -85
-105 -85 -18 0 -19 6 -8 161 l10 162 31 26 c94 79 573 516 573 523 0 24 -66
-13 -407 -228 l-374 -236 -167 51 c-262 81 -264 97 -15 195 504 197 1130 436
1143 436 9 0 26 -7 38 -16z"/>
</g>
</svg>
