<?xml version="1.0" standalone="no"?>
<!DOCTYPE svg PUBLIC "-//W3C//DTD SVG 20010904//EN"
 "http://www.w3.org/TR/2001/REC-SVG-20010904/DTD/svg10.dtd">
<svg version="1.0" xmlns="http://www.w3.org/2000/svg"
 width="256.000000pt" height="256.000000pt" viewBox="0 0 256.000000 256.000000"
 preserveAspectRatio="xMidYMid meet">

<g transform="translate(0.000000,256.000000) scale(0.100000,-0.100000)"
fill="#000000" stroke="none">
<path d="M1140 2554 c-588 -75 -1041 -515 -1126 -1094 -57 -393 78 -802 358
-1077 124 -122 204 -180 336 -247 415 -209 911 -172 1303 95 103 70 255 225
326 329 294 437 295 1002 3 1436 -187 276 -475 468 -810 540 -73 15 -320 27
-390 18z m184 -863 c93 -12 96 -19 96 -223 0 -224 12 -246 89 -163 55 60 105
140 156 250 24 51 51 95 60 99 21 8 292 8 323 0 59 -16 29 -99 -103 -279 -106
-145 -125 -174 -125 -199 0 -10 44 -64 99 -120 158 -162 185 -212 141 -256
-18 -18 -33 -20 -165 -20 -103 0 -155 4 -178 14 -18 8 -72 55 -122 105 -121
123 -144 122 -166 -4 -9 -53 -18 -76 -37 -94 -25 -23 -31 -23 -123 -18 -227
14 -381 118 -549 372 -73 111 -240 434 -240 465 0 34 21 40 151 40 70 0 139
-4 154 -10 19 -7 35 -30 61 -87 63 -138 155 -277 199 -300 41 -22 50 4 53 158
4 154 -1 173 -54 195 -19 8 -34 20 -34 28 0 18 39 43 76 49 48 7 175 6 238 -2z"/>
</g>
</svg>
