<?xml version="1.0" standalone="no"?>
<!DOCTYPE svg PUBLIC "-//W3C//DTD SVG 20010904//EN"
 "http://www.w3.org/TR/2001/REC-SVG-20010904/DTD/svg10.dtd">
<svg version="1.0" xmlns="http://www.w3.org/2000/svg"
 width="256.000000pt" height="256.000000pt" viewBox="0 0 256.000000 256.000000"
 preserveAspectRatio="xMidYMid meet">

<g transform="translate(0.000000,256.000000) scale(0.100000,-0.100000)"
fill="#000000" stroke="none">
<path d="M1140 2554 c-588 -75 -1041 -515 -1126 -1094 -57 -393 78 -802 358
-1077 124 -122 204 -180 336 -247 415 -209 911 -172 1303 95 103 70 255 225
326 329 294 437 295 1002 3 1436 -187 276 -475 468 -810 540 -73 15 -320 27
-390 18z m514 -824 c104 -12 178 -46 212 -98 34 -50 49 -157 49 -352 -1 -436
-39 -463 -635 -463 -318 0 -442 12 -513 51 -98 53 -121 128 -121 407 -1 193
13 301 44 353 25 41 110 89 173 97 176 25 597 27 791 5z"/>
<path d="M1130 1280 l0 -242 48 29 c129 76 342 208 342 213 0 5 -213 137 -342
213 l-48 29 0 -242z"/>
</g>
</svg>
