<?xml version="1.0" standalone="no"?>
<!DOCTYPE svg PUBLIC "-//W3C//DTD SVG 20010904//EN"
 "http://www.w3.org/TR/2001/REC-SVG-20010904/DTD/svg10.dtd">
<svg version="1.0" xmlns="http://www.w3.org/2000/svg"
 width="1024.000000pt" height="1024.000000pt" viewBox="0 0 1024.000000 1024.000000"
 preserveAspectRatio="xMidYMid meet">

<g transform="translate(0.000000,1024.000000) scale(0.100000,-0.100000)"
fill="#000000" stroke="none">
<path d="M3466 9589 c-438 -9 -801 -29 -996 -54 -263 -35 -531 -114 -749 -220
-386 -188 -636 -437 -831 -825 -157 -314 -212 -559 -251 -1115 -17 -234 -25
-4015 -9 -4315 12 -249 39 -484 76 -663 181 -891 719 -1431 1604 -1610 428
-87 873 -101 3100 -94 1661 4 1777 7 2150 48 674 73 1124 284 1456 682 269
321 420 701 484 1213 41 329 43 391 47 2159 7 2675 -7 2974 -163 3445 -192
581 -590 978 -1172 1170 -294 97 -608 145 -1117 171 -266 14 -3057 20 -3629 8z
m3854 -2146 c220 -29 428 -94 658 -204 134 -65 176 -97 165 -126 -4 -10 -81
-159 -171 -331 -102 -192 -174 -320 -189 -329 -30 -20 -59 -12 -143 37 -99 58
-240 117 -349 147 -84 23 -115 27 -251 27 -123 1 -167 -3 -215 -17 -131 -41
-219 -105 -271 -199 -27 -49 -29 -61 -29 -153 0 -91 3 -105 29 -154 15 -30 51
-79 80 -109 92 -98 179 -148 495 -284 444 -191 669 -326 859 -516 149 -148
240 -316 285 -522 27 -125 29 -376 3 -495 -87 -401 -297 -670 -661 -845 -143
-69 -231 -100 -385 -134 -446 -98 -947 -35 -1376 173 -190 93 -431 265 -449
322 -5 13 12 55 53 132 155 289 271 500 288 524 34 45 69 36 176 -44 211 -160
379 -255 533 -302 263 -82 477 -90 665 -26 133 45 227 125 278 233 23 48 27
71 27 142 0 102 -20 166 -75 243 -76 106 -185 170 -625 367 -414 186 -550 261
-700 387 -231 194 -355 483 -355 825 0 472 246 880 655 1088 286 146 619 194
995 143z m-4692 -102 c109 -49 105 -41 315 -682 104 -316 278 -846 387 -1179
110 -333 220 -670 246 -750 93 -290 125 -370 145 -370 20 0 -5 -73 579 1720
149 459 294 905 322 990 59 182 85 231 140 268 l41 27 381 3 c209 2 390 1 402
-2 13 -4 25 -14 28 -24 3 -10 -15 -76 -40 -147 -25 -72 -151 -440 -280 -820
-311 -914 -482 -1411 -539 -1570 -42 -117 -148 -423 -424 -1225 -53 -155 -99
-273 -111 -285 -20 -19 -33 -20 -434 -23 -400 -3 -415 -2 -470 19 -81 30 -136
76 -168 139 -15 30 -115 307 -222 615 -107 308 -242 697 -301 865 -148 424
-536 1555 -696 2033 -131 390 -134 398 -114 413 17 13 74 15 390 12 366 -3
371 -3 423 -27z"/>
</g>
</svg>
