<?xml version="1.0" encoding="UTF-8"?>
<svg xmlns="http://www.w3.org/2000/svg" id="Layer_1" data-name="Layer 1" viewBox="0 0 24 24">
  <path d="M3.899,8.983c-1.784,.012-2.899,1.213-2.899,3,0,1.89,1.09,3.022,2.913,3.034,1.811-.012,2.867-1.105,2.9-3.033-.031-1.838-1.142-2.988-2.914-3Z"/>
  <path d="M11.993,8.983c-1.784,.012-2.899,1.213-2.899,3,0,1.89,1.09,3.022,2.913,3.034,1.811-.012,2.867-1.105,2.9-3.033-.031-1.838-1.142-2.988-2.914-3Z"/>
  <path d="M20.086,8.983c-1.784,.012-2.899,1.213-2.899,3,0,1.89,1.09,3.022,2.913,3.034,1.811-.012,2.867-1.105,2.9-3.033-.031-1.838-1.142-2.988-2.914-3Z"/>
</svg>
